<svg width="424" height="59" viewBox="0 0 424 59" fill="none" xmlns="http://www.w3.org/2000/svg">
<path d="M17.376 0.199997C21.5147 0.199997 24.7573 0.626664 27.104 1.48C29.4507 2.33333 31.1147 3.80533 32.096 5.896C33.12 7.98667 33.632 10.9093 33.632 14.664C33.632 18.4187 33.1413 21.3413 32.16 23.432C31.2213 25.5227 29.664 26.9947 27.488 27.848C25.312 28.6587 22.368 29.064 18.656 29.064C16.6933 29.064 14.7733 28.9787 12.896 28.808C11.0187 28.6373 9.26933 28.424 7.648 28.168C6.02667 27.912 4.64 27.656 3.488 27.4C2.336 27.1013 1.54667 26.824 1.12 26.568L1.312 21.704C3.82933 21.704 6.432 21.704 9.12 21.704C11.8507 21.704 14.5387 21.704 17.184 21.704C18.8907 21.6613 20.2133 21.448 21.152 21.064C22.1333 20.68 22.816 19.976 23.2 18.952C23.6267 17.928 23.84 16.4987 23.84 14.664C23.84 12.7867 23.6267 11.336 23.2 10.312C22.816 9.288 22.1333 8.584 21.152 8.2C20.2133 7.77333 18.8907 7.56 17.184 7.56C13.2587 7.56 9.888 7.58133 7.072 7.624C4.256 7.66667 2.35733 7.752 1.376 7.88L0.416 0.839996C2.208 0.626663 3.89333 0.477331 5.472 0.391998C7.05067 0.306664 8.75733 0.263996 10.592 0.263996C12.4693 0.22133 14.7307 0.199997 17.376 0.199997ZM10.208 0.839996V45H0.416V0.839996H10.208ZM56.175 12.552C60.143 12.552 63.3217 13.1067 65.711 14.216C68.1003 15.2827 69.807 17.032 70.831 19.464C71.8977 21.896 72.431 25.16 72.431 29.256C72.431 33.2667 71.8977 36.488 70.831 38.92C69.807 41.352 68.1003 43.1013 65.711 44.168C63.3217 45.2347 60.143 45.768 56.175 45.768C52.2497 45.768 49.071 45.2347 46.639 44.168C44.2497 43.1013 42.5217 41.352 41.455 38.92C40.3883 36.488 39.855 33.2667 39.855 29.256C39.855 25.16 40.3883 21.896 41.455 19.464C42.5217 17.032 44.2497 15.2827 46.639 14.216C49.071 13.1067 52.2497 12.552 56.175 12.552ZM56.175 19.464C54.5537 19.464 53.2737 19.7413 52.335 20.296C51.3963 20.8507 50.735 21.832 50.351 23.24C49.967 24.648 49.775 26.6533 49.775 29.256C49.775 31.816 49.967 33.8 50.351 35.208C50.735 36.616 51.3963 37.5973 52.335 38.152C53.2737 38.664 54.5537 38.92 56.175 38.92C57.7963 38.92 59.0763 38.664 60.015 38.152C60.9537 37.5973 61.615 36.616 61.999 35.208C62.383 33.8 62.575 31.816 62.575 29.256C62.575 26.6533 62.383 24.648 61.999 23.24C61.615 21.832 60.9537 20.8507 60.015 20.296C59.0763 19.7413 57.7963 19.464 56.175 19.464ZM92.837 12.552C94.373 12.552 96.037 12.616 97.829 12.744C99.621 12.8293 101.37 12.9573 103.077 13.128C104.784 13.2987 106.298 13.512 107.621 13.768L106.981 19.656C104.933 19.6133 102.864 19.592 100.773 19.592C98.725 19.5493 96.7197 19.528 94.757 19.528C93.093 19.4853 91.813 19.5067 90.917 19.592C90.021 19.6773 89.381 19.8907 88.997 20.232C88.6557 20.5307 88.485 21.0853 88.485 21.896C88.485 22.8347 88.805 23.4747 89.445 23.816C90.085 24.1147 91.1517 24.456 92.645 24.84L100.901 26.824C103.546 27.5067 105.509 28.5307 106.789 29.896C108.069 31.2187 108.709 33.224 108.709 35.912C108.709 38.5573 108.218 40.584 107.237 41.992C106.256 43.4 104.698 44.3813 102.565 44.936C100.432 45.448 97.6797 45.704 94.309 45.704C92.9863 45.704 91.0237 45.64 88.421 45.512C85.8183 45.384 82.9597 45.064 79.845 44.552L80.485 38.664C81.253 38.7067 82.2343 38.7493 83.429 38.792C84.6237 38.792 85.925 38.792 87.333 38.792C88.741 38.792 90.149 38.792 91.557 38.792C93.733 38.792 95.397 38.7493 96.549 38.664C97.701 38.536 98.4903 38.28 98.917 37.896C99.3437 37.512 99.557 36.936 99.557 36.168C99.557 35.2293 99.1943 34.5893 98.469 34.248C97.7437 33.9067 96.5917 33.544 95.013 33.16L87.013 31.176C85.0077 30.6213 83.4503 29.9173 82.341 29.064C81.2317 28.2107 80.4423 27.1653 79.973 25.928C79.5463 24.6907 79.333 23.2187 79.333 21.512C79.333 19.336 79.7597 17.608 80.613 16.328C81.509 15.0053 82.9383 14.0453 84.901 13.448C86.9063 12.8507 89.5517 12.552 92.837 12.552ZM129.077 4.616V34.888C129.077 36.04 129.333 36.872 129.845 37.384C130.4 37.8533 131.296 38.088 132.533 38.088H136.629L137.653 44.488C136.885 44.744 135.946 44.9573 134.837 45.128C133.728 45.3413 132.618 45.4907 131.509 45.576C130.4 45.704 129.461 45.768 128.693 45.768C125.834 45.768 123.594 45 121.973 43.464C120.394 41.928 119.605 39.7733 119.605 37L119.541 4.616H129.077ZM137.909 13.384V19.592H114.037V13.704L120.181 13.384H137.909ZM166.591 0.839996C167.402 0.839996 168.106 1.07466 168.703 1.544C169.343 2.01333 169.77 2.632 169.983 3.4L182.783 45H172.799L163.775 12.552C163.604 11.8267 163.434 11.1013 163.263 10.376C163.092 9.608 162.943 8.88266 162.815 8.2H161.087C160.959 8.88266 160.81 9.608 160.639 10.376C160.511 11.1013 160.34 11.8267 160.127 12.552L151.103 45H141.055L153.919 3.4C154.132 2.632 154.538 2.01333 155.135 1.544C155.775 1.07466 156.5 0.839996 157.311 0.839996H166.591ZM173.375 25.992V33.352H150.463V25.992H173.375ZM210.644 12.552C216.617 12.552 219.604 15.4747 219.604 21.32V45H210.132V24.264C210.132 22.856 209.876 21.896 209.364 21.384C208.852 20.8293 207.977 20.552 206.74 20.552C205.374 20.552 203.966 20.8293 202.516 21.384C201.065 21.896 199.273 22.7067 197.14 23.816L196.692 18.504C198.953 16.584 201.257 15.112 203.604 14.088C205.993 13.064 208.34 12.552 210.644 12.552ZM196.244 13.384L197.332 19.656L198.1 20.488V45H188.628V13.384H196.244ZM245.689 12.552C248.334 12.552 250.574 12.9147 252.409 13.64C254.244 14.3227 255.63 15.5173 256.569 17.224C257.55 18.888 258.041 21.192 258.041 24.136V45H250.489L249.145 38.152L248.505 37.192V24.072C248.505 22.5787 248.142 21.4907 247.417 20.808C246.734 20.1253 245.412 19.784 243.449 19.784C241.828 19.784 239.801 19.848 237.369 19.976C234.937 20.0613 232.441 20.1893 229.881 20.36L228.985 14.088C230.521 13.7893 232.292 13.5333 234.297 13.32C236.302 13.1067 238.308 12.936 240.313 12.808C242.318 12.6373 244.11 12.552 245.689 12.552ZM254.137 25.544L254.073 30.856L239.993 30.92C238.841 30.92 238.009 31.1973 237.497 31.752C237.028 32.3067 236.793 33.0533 236.793 33.992V35.528C236.793 36.5947 237.092 37.4267 237.689 38.024C238.286 38.5787 239.246 38.856 240.569 38.856C241.678 38.856 242.873 38.6213 244.153 38.152C245.476 37.6827 246.777 37.0213 248.057 36.168C249.337 35.3147 250.468 34.312 251.449 33.16V37.256C251.065 37.896 250.489 38.7067 249.721 39.688C248.996 40.6267 248.057 41.5653 246.905 42.504C245.753 43.4 244.409 44.168 242.873 44.808C241.337 45.448 239.588 45.768 237.625 45.768C235.705 45.768 233.977 45.4267 232.441 44.744C230.905 44.0613 229.689 43.0587 228.793 41.736C227.897 40.4133 227.449 38.7707 227.449 36.808V33.544C227.449 31.0267 228.302 29.064 230.009 27.656C231.716 26.248 234.062 25.544 237.049 25.544H254.137ZM276.941 0.199997L276.877 34.888C276.877 35.9547 277.197 36.7653 277.837 37.32C278.477 37.832 279.416 38.088 280.653 38.088H283.213L284.301 44.488C283.789 44.744 283.064 44.9573 282.125 45.128C281.186 45.3413 280.226 45.4907 279.245 45.576C278.264 45.704 277.432 45.768 276.749 45.768C273.89 45.768 271.629 45.0213 269.965 43.528C268.301 42.0347 267.469 39.944 267.469 37.256V0.199997H276.941ZM320.508 13.384L309.18 45.384C308.668 46.9627 307.943 48.5413 307.004 50.12C306.108 51.7413 304.956 53.192 303.548 54.472C302.183 55.752 300.519 56.712 298.556 57.352C296.636 58.0347 294.353 58.2053 291.708 57.864L291.004 52.488C293.607 51.8053 295.633 50.888 297.084 49.736C298.535 48.584 299.665 47.0693 300.476 45.192L302.46 40.776C302.844 39.8373 303.207 38.7067 303.548 37.384C303.932 36.0187 304.252 34.8453 304.508 33.864L310.396 13.384H320.508ZM295.42 13.384L301.436 33.864C301.607 34.6747 301.777 35.4853 301.948 36.296C302.119 37.1067 302.268 37.9173 302.396 38.728H304.124L301.116 45H298.812C298.087 45 297.447 44.7867 296.892 44.36C296.337 43.9333 295.953 43.3787 295.74 42.696L285.308 13.384H295.42ZM342.998 19.912L353.878 19.976L336.406 38.536L325.526 38.472L342.998 19.912ZM354.198 38.472V45H325.526V38.472H354.198ZM353.878 13.384V19.976H325.782V13.384H353.878ZM377.266 12.552C382.599 12.552 386.418 13.4693 388.722 15.304C391.069 17.096 392.242 19.784 392.242 23.368C392.285 26.2693 391.559 28.4453 390.066 29.896C388.573 31.304 385.991 32.008 382.322 32.008H364.658V26.696H379.698C381.149 26.696 382.066 26.3973 382.45 25.8C382.877 25.16 383.09 24.2853 383.09 23.176C383.047 21.6827 382.599 20.6587 381.746 20.104C380.935 19.5067 379.549 19.208 377.586 19.208C375.837 19.208 374.471 19.4427 373.49 19.912C372.509 20.3813 371.826 21.2773 371.442 22.6C371.058 23.9227 370.866 25.8427 370.866 28.36C370.866 31.0053 371.101 33.0533 371.57 34.504C372.039 35.912 372.829 36.8933 373.938 37.448C375.09 38.0027 376.669 38.28 378.674 38.28C380.125 38.28 381.917 38.2373 384.05 38.152C386.226 38.024 388.402 37.832 390.578 37.576L391.474 43.4C390.237 43.9973 388.829 44.4667 387.25 44.808C385.671 45.1493 384.05 45.384 382.386 45.512C380.722 45.6827 379.122 45.768 377.586 45.768C373.575 45.768 370.333 45.192 367.858 44.04C365.426 42.8453 363.655 41.032 362.546 38.6C361.479 36.168 360.946 33.0533 360.946 29.256C360.946 25.1173 361.501 21.832 362.61 19.4C363.719 16.968 365.469 15.2187 367.858 14.152C370.247 13.0853 373.383 12.552 377.266 12.552ZM407.759 13.384L408.911 19.656L409.807 20.488V45H400.335V13.384H407.759ZM423.183 12.552L422.287 21.32H419.663C418.17 21.32 416.612 21.5333 414.991 21.96C413.37 22.3867 411.322 23.0267 408.847 23.88L408.207 18.568C410.426 16.6053 412.666 15.112 414.927 14.088C417.188 13.064 419.386 12.552 421.519 12.552H423.183Z" fill="#3858E9"/>
</svg>
